<?xml version="1.0" encoding="UTF-8" standalone="no"?>
<!-- Created with Inkscape (http://www.inkscape.org/) -->

<svg
   width="210mm"
   height="297mm"
   viewBox="0 0 210 297"
   version="1.1"
   id="svg5"
   inkscape:version="1.1.1 (3bf5ae0d25, 2021-09-20)"
   sodipodi:docname="sprites.svg"
   xmlns:inkscape="http://www.inkscape.org/namespaces/inkscape"
   xmlns:sodipodi="http://sodipodi.sourceforge.net/DTD/sodipodi-0.dtd"
   xmlns:xlink="http://www.w3.org/1999/xlink"
   xmlns="http://www.w3.org/2000/svg"
   xmlns:svg="http://www.w3.org/2000/svg">
  <sodipodi:namedview
     id="namedview7"
     pagecolor="#505050"
     bordercolor="#eeeeee"
     borderopacity="1"
     inkscape:pageshadow="0"
     inkscape:pageopacity="0"
     inkscape:pagecheckerboard="0"
     inkscape:document-units="mm"
     showgrid="false"
     inkscape:zoom="3.1108586"
     inkscape:cx="412.2656"
     inkscape:cy="507.41618"
     inkscape:window-width="3440"
     inkscape:window-height="1351"
     inkscape:window-x="-9"
     inkscape:window-y="-9"
     inkscape:window-maximized="1"
     inkscape:current-layer="layer1"
     showguides="true"
     inkscape:guide-bbox="true">
    <sodipodi:guide
       position="182.96714,257.70619"
       orientation="1,0"
       id="guide9234" />
    <sodipodi:guide
       position="114.98868,217.73479"
       orientation="0,-1"
       id="guide9394" />
  </sodipodi:namedview>
  <defs
     id="defs2">
    <linearGradient
       inkscape:collect="always"
       id="linearGradient14767">
      <stop
         style="stop-color:#4d4d4d;stop-opacity:1"
         offset="0"
         id="stop14761" />
      <stop
         style="stop-color:#666666;stop-opacity:1"
         offset="0.44377476"
         id="stop14763" />
      <stop
         style="stop-color:#ffffff;stop-opacity:1"
         offset="1"
         id="stop14765" />
    </linearGradient>
    <linearGradient
       inkscape:collect="always"
       id="linearGradient9978">
      <stop
         style="stop-color:#333333;stop-opacity:1"
         offset="0"
         id="stop9970" />
      <stop
         style="stop-color:#666666;stop-opacity:1"
         offset="0.36430335"
         id="stop9972" />
      <stop
         style="stop-color:#7c7c7c;stop-opacity:1;"
         offset="0.46126562"
         id="stop9974" />
      <stop
         style="stop-color:#ffffff;stop-opacity:1"
         offset="1"
         id="stop9976" />
    </linearGradient>
    <linearGradient
       inkscape:collect="always"
       id="linearGradient8416">
      <stop
         style="stop-color:#333333;stop-opacity:1"
         offset="0"
         id="stop8410" />
      <stop
         style="stop-color:#666666;stop-opacity:1"
         offset="0.36430335"
         id="stop8412" />
      <stop
         style="stop-color:#7c7c7c;stop-opacity:1;"
         offset="0.45850632"
         id="stop8930" />
      <stop
         style="stop-color:#ffffff;stop-opacity:1"
         offset="1"
         id="stop8414" />
    </linearGradient>
    <linearGradient
       inkscape:collect="always"
       id="linearGradient5884">
      <stop
         style="stop-color:#1a1a1a;stop-opacity:0"
         offset="0"
         id="stop5878" />
      <stop
         style="stop-color:#5e5e5e;stop-opacity:0;"
         offset="0.69173872"
         id="stop6410" />
      <stop
         style="stop-color:#ffffff;stop-opacity:1"
         offset="0.78447044"
         id="stop5880" />
      <stop
         style="stop-color:#ffffff;stop-opacity:1"
         offset="1"
         id="stop5882" />
    </linearGradient>
    <linearGradient
       inkscape:collect="always"
       id="linearGradient1526">
      <stop
         style="stop-color:#1a1a1a;stop-opacity:1"
         offset="0"
         id="stop1522" />
      <stop
         style="stop-color:#666666;stop-opacity:1"
         offset="0.6457783"
         id="stop2390" />
      <stop
         style="stop-color:#ffffff;stop-opacity:1"
         offset="1"
         id="stop1524" />
    </linearGradient>
    <radialGradient
       inkscape:collect="always"
       xlink:href="#linearGradient1526"
       id="radialGradient3140"
       gradientUnits="userSpaceOnUse"
       gradientTransform="matrix(1,0,0,0.9999918,0,5.788898e-4)"
       cx="87.842514"
       cy="70.592781"
       fx="87.842514"
       fy="70.592781"
       r="11.397" />
    <radialGradient
       inkscape:collect="always"
       xlink:href="#linearGradient5884"
       id="radialGradient5044"
       cx="139.38776"
       cy="71.399521"
       fx="139.38776"
       fy="71.399521"
       r="13.129407"
       gradientUnits="userSpaceOnUse" />
    <radialGradient
       inkscape:collect="always"
       xlink:href="#linearGradient8416"
       id="radialGradient8152"
       cx="599.85199"
       cy="209.57317"
       fx="599.85199"
       fy="209.57317"
       r="100.3114"
       gradientUnits="userSpaceOnUse" />
    <radialGradient
       inkscape:collect="always"
       xlink:href="#linearGradient9978"
       id="radialGradient9584"
       cx="917.34998"
       cy="196.73378"
       fx="917.34998"
       fy="196.73378"
       r="165.13028"
       gradientTransform="matrix(0.99755927,0.09390102,-0.11682204,0.93602352,21.604297,-74.66889)"
       gradientUnits="userSpaceOnUse" />
    <radialGradient
       inkscape:collect="always"
       xlink:href="#linearGradient14767"
       id="radialGradient14503"
       cx="1170.3745"
       cy="195.85013"
       fx="1170.3745"
       fy="195.85013"
       r="86.604332"
       gradientTransform="matrix(1,0,0,1.0875064,0,-17.13814)"
       gradientUnits="userSpaceOnUse" />
  </defs>
  <g
     inkscape:label="Vrstva 1"
     inkscape:groupmode="layer"
     id="layer1">
    <circle
       style="fill:none;stroke:#ffffff;stroke-width:3.465;stroke-linecap:round;stroke-linejoin:round;stroke-miterlimit:4;stroke-dasharray:none;paint-order:stroke fill markers"
       id="circle5006"
       cx="56.930286"
       cy="71.314468"
       r="11.396907"
       inkscape:export-filename="C:\Projects\GameDev\jams\echo_nomical\assets\textures\echo_hit.png"
       inkscape:export-xdpi="123.81367"
       inkscape:export-ydpi="123.81367" />
    <circle
       style="fill:url(#radialGradient5044);stroke:none;stroke-width:3.465;stroke-linecap:round;stroke-linejoin:round;stroke-miterlimit:4;stroke-dasharray:none;paint-order:stroke fill markers;fill-opacity:1"
       id="circle994"
       cx="139.38776"
       cy="71.399521"
       r="11.396907"
       inkscape:export-filename="C:\Projects\GameDev\jams\echo_nomical\assets\textures\wave.png"
       inkscape:export-xdpi="142.63521"
       inkscape:export-ydpi="142.63521" />
    <ellipse
       style="fill:url(#radialGradient3140);fill-opacity:1;fill-rule:nonzero;stroke:none;stroke-width:2.565;stroke-linecap:round;stroke-linejoin:round;stroke-miterlimit:4;stroke-dasharray:none;paint-order:stroke fill markers"
       id="ellipse3138"
       cx="87.842514"
       cy="70.592781"
       inkscape:export-filename="C:\Projects\GameDev\jams\echo_nomical\assets\textures\player.png"
       inkscape:export-xdpi="142.64"
       inkscape:export-ydpi="142.64"
       rx="11.397"
       ry="11.396907" />
    <ellipse
       style="fill:#ffffff;fill-opacity:1;fill-rule:nonzero;stroke:none;stroke-width:2.565;stroke-linecap:round;stroke-linejoin:round;stroke-miterlimit:4;stroke-dasharray:none;paint-order:stroke fill markers"
       id="path846"
       cx="113.16167"
       cy="71.344536"
       inkscape:export-filename="C:\Projects\GameDev\jams\echo_nomical\assets\textures\echo_ping.png"
       inkscape:export-xdpi="142.64"
       inkscape:export-ydpi="142.64"
       rx="11.397"
       ry="11.396907" />
    <path
       sodipodi:type="star"
       style="fill:url(#radialGradient8152);fill-opacity:1;fill-rule:nonzero;stroke:none;stroke-width:13.0961;stroke-linecap:round;stroke-linejoin:round;stroke-miterlimit:4;stroke-dasharray:none;paint-order:stroke fill markers"
       id="path7490"
       inkscape:flatsided="false"
       sodipodi:sides="12"
       sodipodi:cx="599.85199"
       sodipodi:cy="209.57317"
       sodipodi:r1="71.279106"
       sodipodi:r2="103.30305"
       sodipodi:arg1="1.027358"
       sodipodi:arg2="1.2891574"
       inkscape:rounded="0.09"
       inkscape:randomized="0"
       d="m 636.70913,270.58351 c -3.01058,1.81873 -4.76736,37.24512 -8.14609,38.22269 -3.37872,0.97756 -23.78039,-28.03773 -27.297,-27.96796 -3.5166,0.0698 -22.75122,29.87155 -26.16606,29.02878 -3.41485,-0.84276 -6.57556,-36.17158 -9.65592,-37.86946 -3.08036,-1.69787 -34.63891,14.4939 -37.17487,12.05663 -2.53596,-2.43728 12.39119,-34.6133 10.57246,-37.62388 -1.81873,-3.01058 -37.24513,-4.76737 -38.22269,-8.14609 -0.97757,-3.37872 28.03773,-23.78039 27.96795,-27.297 -0.0698,-3.51661 -29.87154,-22.75123 -29.02878,-26.16607 0.84277,-3.41484 36.17159,-6.57556 37.86946,-9.65592 1.69788,-3.08036 -14.4939,-34.63891 -12.05662,-37.17486 2.43728,-2.53596 34.61329,12.39119 37.62387,10.57245 3.01059,-1.81873 4.76737,-37.24512 8.14609,-38.22269 3.37873,-0.97756 23.7804,28.03773 27.29701,27.96796 3.5166,-0.0698 22.75122,-29.87154 26.16606,-29.02878 3.41485,0.84277 6.57556,36.17159 9.65592,37.86946 3.08036,1.69788 34.63891,-14.4939 37.17487,-12.05662 2.53596,2.43727 -12.39119,34.61329 -10.57246,37.62387 1.81873,3.01058 37.24513,4.76737 38.22269,8.14609 0.97757,3.37872 -28.03773,23.7804 -27.96795,27.297 0.0698,3.51661 29.87154,22.75123 29.02877,26.16607 -0.84276,3.41484 -36.17158,6.57556 -37.86946,9.65592 -1.69787,3.08036 14.49391,34.63891 12.05663,37.17487 -2.43728,2.53595 -34.61329,-12.39119 -37.62388,-10.57246 z"
       transform="matrix(0.25382043,0.07469622,-0.07469622,0.25382043,46.354229,-32.725432)"
       inkscape:transform-center-x="3.9711466"
       inkscape:transform-center-y="-1.4495542"
       inkscape:export-filename="C:\Projects\GameDev\jams\echo_nomical\assets\textures\spiky.png"
       inkscape:export-xdpi="59.48"
       inkscape:export-ydpi="59.48" />
    <path
       sodipodi:type="star"
       style="fill:url(#radialGradient9584);fill-opacity:1;fill-rule:nonzero;stroke:none;stroke-width:26.0441;stroke-linecap:round;stroke-linejoin:round;stroke-miterlimit:4;stroke-dasharray:none;paint-order:stroke fill markers"
       id="path9312"
       inkscape:flatsided="false"
       sodipodi:sides="3"
       sodipodi:cx="915.12097"
       sodipodi:cy="200.02644"
       sodipodi:r1="190.39888"
       sodipodi:r2="121.85528"
       sodipodi:arg1="0.59859823"
       sodipodi:arg2="1.6457958"
       inkscape:rounded="0.09"
       inkscape:randomized="0"
       d="m 1072.4145,307.31335 c -8.4708,12.41898 -151.43352,15.35221 -166.42404,14.22582 -14.99053,-1.12639 -155.90966,-25.39062 -162.42944,-38.936 -6.51978,-13.54537 62.42135,-138.82137 70.8921,-151.24035 8.47075,-12.41898 99.94376,-122.3264126 114.93428,-121.200018 14.99053,1.126394 89.0122,123.469168 95.5319,137.014538 6.5198,13.54537 55.9659,147.71704 47.4952,160.13601 z"
       transform="matrix(0.12373197,-0.01001123,0.0087017,0.14235259,134.4001,52.613574)"
       inkscape:transform-center-x="-1.1086145"
       inkscape:transform-center-y="-0.13746265"
       inkscape:export-filename="C:\Projects\GameDev\jams\echo_nomical\assets\textures\charge.png"
       inkscape:export-xdpi="72.982109"
       inkscape:export-ydpi="72.982109" />
    <path
       id="path11357"
       style="fill:none;fill-rule:evenodd;stroke:url(#radialGradient14503);stroke-width:20.2772;stroke-linecap:round"
       d="m 1167.9427,215.79015 c -9.5351,-6.2828 -10.4399,-19.71388 -4.1375,-28.59418 8.6072,-12.12777 26.0745,-13.11947 37.5264,-4.5584 14.9481,11.17477 16.0191,33.08378 4.9476,47.33504 -13.9716,17.98414 -40.7022,19.128 -57.9685,5.3107 -21.2257,-16.98568 -22.4369,-48.89714 -5.6517,-69.38428 20.2072,-24.66397 57.6417,-25.93754 81.5465,-5.97358 28.2915,23.62746 29.6231,66.91282 6.2787,94.4247 -27.2389,32.10158 -76.6902,33.48734 -107.9919,6.56885 -36.0884,-31.03485 -37.5247,-86.95635 -6.8456,-122.22474 24.2575,-27.88623 78.256,-35.29095 106.6942,-16.32335"
       sodipodi:nodetypes="csssssssssc"
       transform="matrix(0.26458333,0,0,0.26458333,4.811242,10.103608)"
       inkscape:export-filename="C:\Projects\GameDev\jams\echo_nomical\assets\textures\portal.png"
       inkscape:export-xdpi="70.840988"
       inkscape:export-ydpi="70.840988" />
    <path
       sodipodi:type="star"
       style="fill:#ffffff;fill-opacity:1;fill-rule:nonzero;stroke:#ffffff;stroke-width:4.40315;stroke-linecap:round;stroke-linejoin:round;stroke-miterlimit:4;stroke-dasharray:none;stroke-dashoffset:0;paint-order:stroke fill markers"
       id="path16367"
       inkscape:flatsided="true"
       sodipodi:sides="8"
       sodipodi:cx="262.98932"
       sodipodi:cy="376.41339"
       sodipodi:r1="10.948351"
       sodipodi:r2="10.114958"
       sodipodi:arg1="-0.84415399"
       sodipodi:arg2="-0.4514549"
       inkscape:rounded="0.15"
       inkscape:randomized="0"
       d="m 270.26301,368.23049 c 0.93944,0.83506 3.58196,6.28524 3.65577,7.53999 0.0738,1.25476 -1.91151,6.97716 -2.74656,7.9166 -0.83506,0.93944 -6.28524,3.58196 -7.53999,3.65577 -1.25476,0.0738 -6.97716,-1.9115 -7.9166,-2.74656 -0.93944,-0.83506 -3.58196,-6.28523 -3.65577,-7.53999 -0.0738,-1.25476 1.9115,-6.97716 2.74656,-7.9166 0.83506,-0.93944 6.28523,-3.58196 7.53999,-3.65577 1.25476,-0.0738 6.97716,1.91151 7.9166,2.74656 z"
       transform="matrix(0.2386311,0.11427834,-0.11427834,0.2386311,49.841057,-19.647327)"
       inkscape:export-filename="C:\Projects\GameDev\jams\echo_nomical\assets\textures\button_9slice.png"
       inkscape:export-xdpi="484.63269"
       inkscape:export-ydpi="484.63269" />
    <path
       id="path17695"
       style="fill:#ffffff;stroke:#ffffff;stroke-width:1.165;stroke-linecap:round;stroke-linejoin:round;paint-order:stroke fill markers"
       d="m 140.18941,96.876527 c 0.16862,0.28665 0.13651,4.864743 0.0107,5.172593 -0.12578,0.30786 -1.25349,1.44653 -1.56011,1.57528 -0.30663,0.12875 -35.01655,0.1365 -35.32441,0.0107 -0.30786,-0.12578 -1.44653,-1.25348 -1.57528,-1.56011 -0.12875,-0.30663 -0.1365,-4.864733 -0.0107,-5.172593 0.12578,-0.30786 1.25348,-1.44653 1.56011,-1.57528 0.30663,-0.12875 35.01655,-0.1365 35.32441,-0.0107 0.30786,0.12579 1.40666,1.27347 1.57527,1.56011 z"
       sodipodi:nodetypes="ssssssssss"
       inkscape:export-filename="C:\Projects\GameDev\jams\echo_nomical\assets\textures\button.png"
       inkscape:export-xdpi="652.30927"
       inkscape:export-ydpi="652.30927" />
    <rect
       style="fill:#666666;fill-opacity:1;fill-rule:nonzero;stroke:#ffffff;stroke-width:1.165;stroke-linecap:round;stroke-linejoin:round;stroke-miterlimit:4;stroke-dasharray:none;stroke-dashoffset:0;paint-order:stroke fill markers"
       id="rect17719"
       width="80.033997"
       height="48.734535"
       x="81.054115"
       y="123.66495"
       ry="2.5259027"
       rx="2.5259027" />
    <path
       id="path16311"
       style="fill:#ffffff;stroke:#ffffff;stroke-width:1.165;stroke-linecap:round;stroke-linejoin:round;paint-order:stroke fill markers"
       d="m 128.70746,143.14457 c 0.16862,0.28665 0.13651,4.86474 0.0107,5.17259 -0.12578,0.30786 -1.25349,1.44653 -1.56011,1.57528 -0.30663,0.12875 -35.016564,0.1365 -35.324424,0.0107 -0.30786,-0.12578 -1.446527,-1.25348 -1.575277,-1.56011 -0.12875,-0.30663 -0.1365,-4.86473 -0.0107,-5.17259 0.12578,-0.30786 1.253477,-1.44653 1.560107,-1.57528 0.30663,-0.12875 35.016564,-0.1365 35.324424,-0.0107 0.30786,0.12579 1.40666,1.27347 1.57527,1.56011 z"
       sodipodi:nodetypes="ssssssssss"
       inkscape:export-filename="C:\Projects\GameDev\jams\echo_nomical\assets\textures\button.png"
       inkscape:export-xdpi="652.30927"
       inkscape:export-ydpi="652.30927" />
    <path
       sodipodi:type="star"
       style="fill:none;fill-opacity:1;fill-rule:nonzero;stroke:#ffffff;stroke-width:4.40315;stroke-linecap:round;stroke-linejoin:round;stroke-miterlimit:4;stroke-dasharray:none;stroke-dashoffset:0;paint-order:stroke fill markers"
       id="path16157"
       inkscape:flatsided="true"
       sodipodi:sides="8"
       sodipodi:cx="262.98932"
       sodipodi:cy="376.41339"
       sodipodi:r1="10.948351"
       sodipodi:r2="10.114958"
       sodipodi:arg1="-0.84415399"
       sodipodi:arg2="-0.4514549"
       inkscape:rounded="0.15"
       inkscape:randomized="0"
       d="m 270.26301,368.23049 c 0.93944,0.83506 3.58196,6.28524 3.65577,7.53999 0.0738,1.25476 -1.91151,6.97716 -2.74656,7.9166 -0.83506,0.93944 -6.28524,3.58196 -7.53999,3.65577 -1.25476,0.0738 -6.97716,-1.9115 -7.9166,-2.74656 -0.93944,-0.83506 -3.58196,-6.28523 -3.65577,-7.53999 -0.0738,-1.25476 1.9115,-6.97716 2.74656,-7.9166 0.83506,-0.93944 6.28523,-3.58196 7.53999,-3.65577 1.25476,-0.0738 6.97716,1.91151 7.9166,2.74656 z"
       transform="matrix(0.2386311,0.11427834,-0.11427834,0.2386311,61.067861,-27.344492)"
       inkscape:export-filename="C:\Projects\GameDev\jams\echo_nomical\assets\textures\button_outline_9slice.png"
       inkscape:export-xdpi="121.15817"
       inkscape:export-ydpi="121.15817" />
    <text
       xml:space="preserve"
       style="font-style:normal;font-weight:normal;font-size:5.64444px;line-height:1.25;font-family:sans-serif;fill:#000000;fill-opacity:1;stroke:none;stroke-width:0.264583"
       x="96.788651"
       y="147.90463"
       id="text19167"><tspan
         sodipodi:role="line"
         id="tspan19165"
         style="font-style:normal;font-variant:normal;font-weight:normal;font-stretch:normal;font-size:5.64444px;font-family:'Spaceport 2006';-inkscape-font-specification:'Spaceport 2006, ';stroke-width:0.264583"
         x="96.788651"
         y="147.90463">SPACE</tspan></text>
    <path
       id="path886"
       style="fill:#e6e6e6;stroke:none;stroke-width:1.165;stroke-linecap:round;stroke-linejoin:round;paint-order:stroke fill markers"
       d="m 35.866295,114.56445 c -1.399353,0 -2.525946,1.12659 -2.525946,2.52594 v 12.80904 c 0,1.39935 1.126593,2.52595 2.525946,2.52595 h 12.809034 c 1.399352,0 2.525946,-1.1266 2.525946,-2.52595 v -12.80904 c 0,-1.39935 -1.126594,-2.52594 -2.525946,-2.52594 z m 6.404258,2.88251 c 1.88695,0 7.233531,9.24179 6.290056,10.87272 -0.943475,1.63093 -11.636119,1.63093 -12.579594,0 -0.943475,-1.63093 4.40259,-10.87272 6.289538,-10.87272 z"
       inkscape:export-filename="C:\Projects\GameDev\jams\echo_nomical\assets\controls_arrows.png"
       inkscape:export-xdpi="113.1"
       inkscape:export-ydpi="113.1" />
    <path
       id="path888"
       style="fill:#e6e6e6;stroke:none;stroke-width:1.165;stroke-linecap:round;stroke-linejoin:round;paint-order:stroke fill markers"
       d="m 35.866295,152.24239 c -1.399353,0 -2.525946,-1.12659 -2.525946,-2.52594 v -12.80904 c 0,-1.39935 1.126593,-2.52595 2.525946,-2.52595 h 12.809034 c 1.399352,0 2.525946,1.1266 2.525946,2.52595 v 12.80904 c 0,1.39935 -1.126594,2.52594 -2.525946,2.52594 z m 6.404258,-2.88251 c 1.88695,0 7.233531,-9.24179 6.290056,-10.87272 -0.943475,-1.63093 -11.636119,-1.63093 -12.579594,0 -0.943475,1.63093 4.40259,10.87272 6.289538,10.87272 z"
       inkscape:export-filename="C:\Projects\GameDev\jams\echo_nomical\assets\controls_arrows.png"
       inkscape:export-xdpi="113.1"
       inkscape:export-ydpi="113.1" />
    <path
       id="path890"
       style="fill:#e6e6e6;stroke:none;stroke-width:1.165;stroke-linecap:round;stroke-linejoin:round;paint-order:stroke fill markers"
       d="m 13.523337,149.71644 c 0,1.39935 1.12659,2.52595 2.52594,2.52595 h 12.80904 c 1.39935,0 2.52595,-1.1266 2.52595,-2.52595 v -12.80903 c 0,-1.39935 -1.1266,-2.52595 -2.52595,-2.52595 h -12.80904 c -1.39935,0 -2.52594,1.1266 -2.52594,2.52595 z m 2.88251,-6.40426 c 0,-1.88695 9.24179,-7.23353 10.87272,-6.29005 1.63093,0.94347 1.63093,11.63612 0,12.57959 -1.63093,0.94348 -10.87272,-4.40259 -10.87272,-6.28954 z"
       inkscape:export-filename="C:\Projects\GameDev\jams\echo_nomical\assets\controls_arrows.png"
       inkscape:export-xdpi="113.1"
       inkscape:export-ydpi="113.1" />
    <path
       id="rect7715"
       style="fill:#e6e6e6;stroke:none;stroke-width:1.165;stroke-linecap:round;stroke-linejoin:round;paint-order:stroke fill markers"
       d="m 71.018287,136.90741 c 0,-1.39936 -1.12659,-2.52595 -2.52594,-2.52595 h -12.80904 c -1.39935,0 -2.52595,1.12659 -2.52595,2.52595 v 12.80903 c 0,1.39935 1.1266,2.52595 2.52595,2.52595 h 12.80904 c 1.39935,0 2.52594,-1.1266 2.52594,-2.52595 z m -2.88251,6.40426 c 0,1.88695 -9.24179,7.23353 -10.87272,6.29005 -1.63093,-0.94347 -1.63093,-11.63612 0,-12.57959 1.63093,-0.94348 10.87272,4.40259 10.87272,6.28954 z"
       inkscape:export-filename="C:\Projects\GameDev\jams\echo_nomical\assets\controls_arrows.png"
       inkscape:export-xdpi="113.1"
       inkscape:export-ydpi="113.1" />
  </g>
</svg>
